<svg viewBox="0 0 69 47" preserveAspectRatio="xMidYMid meet" fill="none" xmlns="http://www.w3.org/2000/svg">
<path d="M35.8809 28.7533L37.4043 19.1829C37.4303 18.8314 37.4499 18.4733 37.4629 18.1087C37.4759 17.7441 37.4043 17.4316 37.248 17.1712C37.2096 17.1072 37.1617 17.051 37.1043 17.0026L37.1016 17.0003C36.9547 16.8779 36.7464 16.8066 36.4767 16.7865C36.4237 16.7826 36.3683 16.7806 36.3105 16.7806C35.8158 16.7676 35.4447 16.8783 35.1973 17.1126C35.1696 17.1374 35.1427 17.1631 35.1166 17.1897C34.932 17.3779 34.7883 17.6112 34.6856 17.8896C34.6732 17.9229 34.6615 17.9569 34.6504 17.9915C34.5462 18.3561 34.4616 18.7337 34.3965 19.1243L30.0684 19.1535L28.5957 19.1634C28.6019 19.0314 28.6111 18.9011 28.6232 18.7728C28.7005 17.9565 28.8977 17.2151 29.2149 16.5488C29.2659 16.4418 29.3199 16.3368 29.377 16.2337C29.7233 15.6159 30.1435 15.0686 30.6378 14.5921C30.7372 14.4962 30.8397 14.4032 30.9451 14.313C30.9539 14.3056 30.9626 14.2981 30.9714 14.2907C31.0627 14.2136 31.1563 14.1387 31.252 14.0658C31.336 14.0017 31.4212 13.9393 31.5075 13.8787C31.5111 13.8761 31.5147 13.8736 31.5183 13.8711C31.5209 13.8693 31.5235 13.8675 31.5261 13.8657C32.2245 13.378 32.999 13.002 33.8496 12.7376C34.8131 12.4382 35.8158 12.2949 36.8574 12.3079C38.2506 12.334 39.4486 12.6335 40.4512 13.2064C41.4668 13.7793 42.2155 14.5866 42.6973 15.6283C42.8921 16.0334 43.0375 16.4688 43.1334 16.9345C43.281 17.6513 43.3114 18.4398 43.2246 19.3001L41.7402 28.6361C41.623 29.4173 41.5319 30.2311 41.4668 31.0775C41.4592 31.1744 41.4537 31.2709 41.4502 31.3669C41.4262 32.0203 41.496 32.6533 41.6596 33.266C41.6787 33.3375 41.699 33.4088 41.7207 33.4798L41.7012 33.8509L40.1964 33.8561L36.0371 33.8704C35.8754 33.3343 35.7693 32.7869 35.7189 32.2285C35.6921 31.9326 35.681 31.6335 35.6855 31.3314C35.6986 30.459 35.7637 29.5996 35.8809 28.7533ZM37.9316 20.9408L37.3652 24.3392L35.8223 24.3197C35.3275 24.3327 34.8848 24.4368 34.4941 24.6322C34.1165 24.8145 33.7845 25.0684 33.498 25.3939C33.2246 25.7064 33.0033 26.071 32.834 26.4876C32.6777 26.8913 32.5671 27.3275 32.502 27.7962C32.4629 28.1087 32.4499 28.4212 32.4629 28.7337C32.4759 29.0332 32.554 29.2871 32.6973 29.4954C32.8535 29.6908 33.1335 29.7949 33.5371 29.8079C33.9538 29.8079 34.3509 29.7168 34.7285 29.5345C35.1191 29.3392 35.4447 29.0853 35.7051 28.7728C35.9655 28.4603 36.1217 28.0892 36.1738 27.6595L36.8574 30.0814C36.623 30.6283 36.3626 31.1556 36.0762 31.6634C35.9649 31.8606 35.8458 32.049 35.7189 32.2285C35.5189 32.5113 35.2995 32.7721 35.0605 33.0111C34.6699 33.4017 34.2207 33.7142 33.7129 33.9486C33.2181 34.1829 32.6191 34.2936 31.916 34.2806C30.7702 34.2676 29.7871 33.9811 28.9668 33.4212C28.2624 32.9292 27.7067 32.3076 27.3 31.5564C27.2331 31.4328 27.1702 31.3057 27.1113 31.1751C27.0356 31.0018 26.9677 30.8252 26.9076 30.6455C26.6471 29.8666 26.5327 29.0275 26.5645 28.1283C26.5929 27.57 26.665 27.0466 26.7807 26.5581C26.9295 25.9301 27.1504 25.3597 27.4434 24.847C27.5085 24.7331 27.5762 24.6218 27.6466 24.5131C28.0703 23.8593 28.5897 23.3012 29.205 22.839C29.3053 22.7636 29.4082 22.6907 29.5137 22.6204C29.5218 22.6149 29.5299 22.6094 29.538 22.6039C30.3913 22.0264 31.3467 21.6022 32.4043 21.3314C33.485 21.0579 34.6048 20.9212 35.7637 20.9212L37.9316 20.9408Z" fill="#A0430A"/>
<path fill-rule="evenodd" clip-rule="evenodd" d="M30.127 18.7728L30.0684 19.1535L28.5957 19.1634C28.6019 19.0314 28.6111 18.9011 28.6232 18.7728H30.127ZM29.7367 21.3118L29.9146 20.1542L27.5476 20.1704L27.5964 19.1167C27.6018 19.0011 27.6093 18.8865 27.6189 18.7728H20.4785L19.6973 23.2845H23.3301L22.3535 28.2259C22.002 28.3952 21.6634 28.5579 21.3379 28.7142C21.0254 28.8704 20.6999 28.9941 20.3613 29.0853C20.0358 29.1764 19.6647 29.2155 19.248 29.2025C18.2715 29.1895 17.5488 28.9486 17.0801 28.4798C16.6113 27.998 16.3053 27.3861 16.1621 26.6439C16.0189 25.9017 15.9733 25.127 16.0254 24.3197C16.0905 23.4993 16.1621 22.7376 16.2402 22.0345L16.9629 17.2103C17.054 16.429 17.1973 15.6087 17.3926 14.7493C17.6009 13.89 17.9004 13.0957 18.291 12.3665C18.6816 11.6243 19.196 11.0319 19.834 10.5892C20.485 10.1465 21.2988 9.94466 22.2754 9.98372C23.1999 10.0228 23.8574 10.2637 24.248 10.7064C24.6517 11.1491 24.8991 11.7155 24.9902 12.4056C25.0944 13.0827 25.14 13.8053 25.127 14.5736L29.2878 14.5875C29.6851 14.0974 30.1378 13.658 30.6452 13.271C30.7236 13.2112 30.8028 13.1528 30.8829 13.0957C30.769 11.8176 30.504 10.663 30.0879 9.63216C29.528 8.19987 28.6296 7.08008 27.3926 6.27279C26.1556 5.45247 24.5345 5.0293 22.5293 5.00326C20.7194 4.96419 19.1309 5.27669 17.7637 5.94076C16.4095 6.5918 15.2637 7.49674 14.3262 8.6556C13.4017 9.80143 12.653 11.1165 12.0801 12.6009C11.5072 14.0853 11.11 15.6413 10.8887 17.2689L10.1465 22.015C9.95117 23.5645 9.95117 25.0684 10.1465 26.5267C10.3548 27.972 10.7845 29.2741 11.4355 30.4329C12.0866 31.5788 12.998 32.4967 14.1699 33.1868C15.3548 33.8639 16.8197 34.2155 18.5645 34.2415C19.7103 34.2546 20.8822 34.1374 22.0801 33.89C23.278 33.6426 24.4173 33.252 25.498 32.7181C25.8432 32.5455 26.1728 32.3567 26.4869 32.1517C26.3834 31.9697 26.2877 31.7812 26.1999 31.5864L26.195 31.5757C25.7259 30.5012 25.5214 29.3346 25.5651 28.0933V28.0854L25.5661 28.0776C25.6375 26.6787 25.9613 25.425 26.5749 24.3511C27.1696 23.3103 27.9634 22.4541 28.9499 21.7944L29.3161 21.5571C29.4542 21.4719 29.5944 21.3901 29.7367 21.3118ZM29.538 22.6039L29.5137 22.6204C29.4082 22.6907 29.3053 22.7636 29.205 22.839L29.1989 22.8433C28.5863 23.3046 28.0689 23.8613 27.6466 24.5131C27.5762 24.6218 27.5085 24.7331 27.4434 24.847C27.3783 24.9608 27.3164 25.0782 27.2585 25.1978C27.0557 25.6163 26.8964 26.0698 26.7807 26.5581C26.665 27.0466 26.5929 27.57 26.5645 28.1283C26.5327 29.0275 26.6471 29.8666 26.9076 30.6455C26.9677 30.8252 27.0356 31.0018 27.1113 31.1751C27.1702 31.3057 27.2331 31.4328 27.3 31.5564C27.6617 31.2599 27.9986 30.9375 28.3105 30.5892L29.538 22.6039ZM34.6856 17.8896C34.7883 17.6112 34.932 17.3779 35.1166 17.1897L35.1071 17.1987C34.9049 17.4081 34.7529 17.6726 34.6504 17.9915C34.6615 17.9569 34.6732 17.9229 34.6856 17.8896ZM36.4767 16.7865C36.7464 16.8066 36.9547 16.8779 37.1016 17.0003L37.1043 17.0026C36.9577 16.8791 36.7494 16.8071 36.4792 16.7866L36.4767 16.7865ZM40.0228 34.8562L38.7871 41.9759H44.5684L46.3606 31.6441C46.6387 32.2025 46.9853 32.6972 47.4004 33.1283C48.0905 33.8314 49.0215 34.2025 50.1934 34.2415C51.5866 34.2936 52.7585 34.0137 53.709 33.4017C54.6725 32.7897 55.4538 31.9694 56.0527 30.9408C56.6647 29.9121 57.1335 28.7923 57.459 27.5814C57.7845 26.3704 58.0124 25.1986 58.1426 24.0658L58.3574 22.4251C58.4746 21.3574 58.5137 20.2376 58.4746 19.0658C58.4355 17.8939 58.2467 16.8066 57.9082 15.804C57.5697 14.7884 57.0033 13.9616 56.209 13.3236C55.4277 12.6725 54.347 12.334 52.9668 12.3079C51.7298 12.2689 50.6751 12.5944 49.8027 13.2845C49.5619 13.475 49.3319 13.68 49.1129 13.8993L49.1973 12.7181H43.8652L43.4781 14.9486C43.5221 15.0338 43.5645 15.1205 43.6052 15.2085C44.1924 16.4368 44.376 17.8495 44.2194 19.4009L44.2165 19.4292L44.2126 19.4575L42.7282 28.7935C42.6155 29.5464 42.5267 30.3331 42.4636 31.1538V31.1558C42.4079 31.8694 42.4811 32.5443 42.6774 33.188L42.7282 33.3569L42.7194 33.5327L42.6501 34.8472L40.0228 34.8562ZM35.0605 33.0111C35.2995 32.7721 35.5189 32.5113 35.7189 32.2285C35.7693 32.7869 35.8754 33.3343 36.0371 33.8704C35.8746 33.3316 35.7696 32.7815 35.7194 32.2202C35.5184 32.5052 35.3011 32.7705 35.0605 33.0111ZM41.7012 33.8509L40.1964 33.8561L43.1334 16.9345C43.281 17.6513 43.3114 18.4398 43.2246 19.3001L41.7402 28.6361C41.623 29.4173 41.5319 30.2311 41.4668 31.0775L41.4502 31.3669C41.4262 32.0203 41.496 32.6533 41.6596 33.266C41.6787 33.3375 41.699 33.4088 41.7207 33.4798L41.7012 33.8509ZM48.7232 18.0246L47.0278 27.7977C47.0993 28.109 47.2104 28.3949 47.3613 28.6556C47.6478 29.1504 48.1947 29.4173 49.002 29.4564C49.7051 29.4824 50.265 29.3197 50.6816 28.9681C51.1113 28.6165 51.4368 28.1608 51.6582 27.6009C51.8926 27.028 52.0553 26.429 52.1465 25.804C52.2376 25.179 52.3092 24.6061 52.3613 24.0853L52.5371 22.3861C52.5762 21.9824 52.6283 21.4941 52.6934 20.9212C52.7715 20.3483 52.791 19.7754 52.752 19.2025C52.7259 18.6165 52.5762 18.1283 52.3027 17.7376C52.0423 17.347 51.5996 17.1387 50.9746 17.1126C50.3105 17.0866 49.7637 17.2168 49.334 17.5033C49.1067 17.6479 48.9031 17.8217 48.7232 18.0246ZM30.9451 14.313C30.8397 14.4032 30.7372 14.4962 30.6378 14.5921L30.9473 14.5931C30.9473 14.4992 30.9466 14.4058 30.9451 14.313ZM33.8496 12.7376C32.999 13.002 32.2245 13.378 31.5261 13.8657L31.5183 13.8711C32.1199 13.45 32.7782 13.1121 33.4929 12.8569L33.8496 12.7376ZM30.9714 14.2907C31.0627 14.2136 31.1563 14.1387 31.252 14.0658L30.9714 14.2907ZM29.377 16.2337L29.2149 16.5488C29.2659 16.4418 29.3199 16.3368 29.377 16.2337Z" fill="#A0430A"/>
</svg>
