<svg width="500" height="292" viewBox="0 0 500 292" fill="none" xmlns="http://www.w3.org/2000/svg">
<path d="M231.333 29.3748V44.9717C231.333 49.9305 233.3 54.6862 236.801 58.1926C240.301 61.6989 245.049 63.6688 250 63.6688C254.951 63.6688 259.699 61.6989 263.199 58.1926C266.7 54.6862 268.667 49.9305 268.667 44.9717V29.3748H231.333Z" fill="#FFB69F"/>
<path d="M270.198 2.97804L262.153 7.18491C260.082 8.26997 257.78 8.83633 255.443 8.83553H239.944C238.538 8.83893 237.149 9.14736 235.874 9.73959C234.598 10.3318 233.466 11.1938 232.554 12.2662C231.643 13.3387 230.975 14.5961 230.595 15.952C230.215 17.3079 230.133 18.7302 230.354 20.1209L231.333 29.3748H268.667C274.211 23.4566 274.331 11.2525 270.198 2.97804Z" fill="#7C7B7A"/>
<path d="M281.865 89.655V98.3067H218.135V89.655C218.135 82.762 220.869 76.1514 225.735 71.2773C230.602 66.4032 237.201 63.6647 244.083 63.664H255.917C262.799 63.6647 269.398 66.4032 274.264 71.2773C279.131 76.1514 281.865 82.762 281.865 89.655Z" fill="#DFE8E6"/>
<path d="M388.891 256.395H376.059V116.663C376.059 111.795 374.128 107.126 370.691 103.683C367.254 100.24 362.592 98.3059 357.731 98.3055H142.264C137.404 98.3071 132.743 100.242 129.307 103.684C125.871 107.127 123.941 111.796 123.941 116.663V256.395H111.109C108.951 256.395 106.881 257.254 105.355 258.783C103.829 260.311 102.971 262.385 102.971 264.546C102.971 271.038 105.546 277.264 110.129 281.854C114.712 286.445 120.928 289.024 127.409 289.024H372.592C379.074 289.024 385.289 286.445 389.872 281.854C394.455 277.264 397.03 271.038 397.03 264.546C397.03 262.384 396.172 260.311 394.646 258.782C393.12 257.253 391.05 256.395 388.891 256.395Z" fill="#7C7B7A"/>
<path d="M360.18 236.912V117.788C360.18 115.816 358.584 114.218 356.616 114.218H143.385C141.417 114.218 139.821 115.816 139.821 117.788V236.912C139.821 238.884 141.417 240.482 143.385 240.482H356.616C358.584 240.482 360.18 238.884 360.18 236.912Z" fill="#DFE8E6"/>
<path d="M360.179 117.787V132.135H139.82V117.787C139.82 116.84 140.195 115.932 140.864 115.262C141.532 114.593 142.439 114.217 143.384 114.217H356.615C357.56 114.217 358.467 114.593 359.135 115.262C359.803 115.932 360.179 116.84 360.179 117.787Z" fill="#72C1E8"/>
<path d="M290.53 256.396L288.266 267.785C287.99 269.173 287.242 270.423 286.15 271.321C285.057 272.219 283.687 272.71 282.274 272.71H217.726C216.313 272.71 214.943 272.219 213.85 271.321C212.758 270.423 212.01 269.173 211.734 267.785L209.47 256.396H290.53Z" fill="#AFAFAF"/>
<path d="M181.172 169.753V179.126C181.203 182.086 182.398 184.914 184.498 186.997C186.599 189.079 189.435 190.247 192.39 190.247C195.345 190.247 198.181 189.079 200.281 186.997C202.382 184.914 203.577 182.086 203.608 179.126V169.753H181.172Z" fill="#FFB69F"/>
<path d="M204.53 153.89L199.694 156.419C198.45 157.07 197.067 157.411 195.663 157.41H186.347C185.502 157.412 184.667 157.598 183.9 157.954C183.134 158.31 182.453 158.828 181.906 159.472C181.358 160.117 180.956 160.873 180.728 161.688C180.5 162.503 180.451 163.358 180.584 164.193L181.172 169.754H203.608C206.939 166.196 207.011 158.862 204.53 153.89Z" fill="#7C7B7A"/>
<path d="M188.838 190.357H195.941C197.989 190.357 200.017 190.76 201.91 191.545C203.802 192.33 205.522 193.481 206.97 194.932C208.419 196.383 209.568 198.105 210.352 200.001C211.135 201.896 211.539 203.928 211.538 205.98V218.303H173.248V205.98C173.247 201.837 174.889 197.864 177.813 194.935C180.736 192.005 184.702 190.358 188.838 190.357Z" fill="#A0430A"/>
<path d="M372.592 280.099H336.236C335.448 280.099 334.693 279.786 334.136 279.228C333.579 278.67 333.266 277.913 333.266 277.124C333.266 276.335 333.579 275.578 334.136 275.02C334.693 274.463 335.448 274.149 336.236 274.149H372.592C374.637 274.154 376.629 273.501 378.276 272.288C379.923 271.074 381.137 269.363 381.741 267.406C381.977 266.653 382.503 266.025 383.201 265.66C383.9 265.295 384.715 265.223 385.466 265.46C386.218 265.697 386.845 266.223 387.209 266.922C387.574 267.622 387.646 268.438 387.41 269.191C386.43 272.358 384.462 275.127 381.795 277.091C379.128 279.054 375.903 280.109 372.592 280.099ZM302.798 280.099C302.01 280.099 301.254 279.786 300.697 279.228C300.14 278.67 299.827 277.913 299.827 277.124C299.827 276.335 300.14 275.578 300.697 275.02C301.254 274.463 302.01 274.149 302.798 274.149H324.357C325.145 274.149 325.9 274.463 326.458 275.02C327.015 275.578 327.328 276.335 327.328 277.124C327.328 277.913 327.015 278.67 326.458 279.228C325.9 279.786 325.145 280.099 324.357 280.099H302.798Z" fill="#AFAFAF"/>
<path d="M183.465 280.099H178.713C177.925 280.099 177.17 279.786 176.613 279.228C176.056 278.67 175.743 277.913 175.743 277.124C175.743 276.335 176.056 275.578 176.613 275.02C177.17 274.463 177.925 274.149 178.713 274.149H183.465C184.253 274.149 185.009 274.463 185.566 275.02C186.123 275.578 186.436 276.335 186.436 277.124C186.436 277.913 186.123 278.67 185.566 279.228C185.009 279.786 184.253 280.099 183.465 280.099ZM166.832 280.099H127.408C124.096 280.109 120.869 279.054 118.201 277.089C115.533 275.125 113.565 272.354 112.587 269.185C112.351 268.432 112.423 267.616 112.787 266.917C113.151 266.217 113.778 265.691 114.53 265.454C115.282 265.217 116.097 265.289 116.795 265.654C117.494 266.019 118.019 266.647 118.255 267.4C118.859 269.357 120.074 271.068 121.72 272.282C123.367 273.495 125.359 274.148 127.404 274.143H166.832C167.619 274.143 168.375 274.457 168.932 275.014C169.489 275.572 169.802 276.329 169.802 277.118C169.802 277.907 169.489 278.664 168.932 279.222C168.375 279.78 167.619 280.093 166.832 280.093V280.099Z" fill="#AFAFAF"/>
<path d="M348.008 231.902C347.22 231.902 346.465 231.588 345.908 231.03C345.351 230.473 345.038 229.716 345.038 228.927V227.037C345.038 226.248 345.351 225.491 345.908 224.933C346.465 224.375 347.22 224.062 348.008 224.062C348.796 224.062 349.551 224.375 350.108 224.933C350.665 225.491 350.978 226.248 350.978 227.037V228.927C350.978 229.716 350.665 230.473 350.108 231.03C349.551 231.588 348.796 231.902 348.008 231.902ZM348.008 218.111C347.22 218.111 346.465 217.798 345.908 217.24C345.351 216.682 345.038 215.925 345.038 215.136V146.856H326.473C325.686 146.856 324.93 146.543 324.373 145.985C323.816 145.427 323.503 144.67 323.503 143.881C323.503 143.092 323.816 142.336 324.373 141.778C324.93 141.22 325.686 140.906 326.473 140.906H348.008C348.796 140.906 349.551 141.22 350.108 141.778C350.665 142.336 350.978 143.092 350.978 143.881V215.136C350.978 215.925 350.665 216.682 350.108 217.24C349.551 217.798 348.796 218.111 348.008 218.111Z" fill="#F2E1D6"/>
<path d="M315.893 101.282C317.534 101.282 318.863 99.9499 318.863 98.3067C318.863 96.6636 317.534 95.3316 315.893 95.3316C314.253 95.3316 312.923 96.6636 312.923 98.3067C312.923 99.9499 314.253 101.282 315.893 101.282Z" fill="black"/>
<path d="M139.826 216.086C140.413 216.086 140.987 215.911 141.476 215.585C141.964 215.258 142.345 214.793 142.57 214.249C142.795 213.706 142.854 213.108 142.739 212.53C142.624 211.953 142.341 211.423 141.926 211.007C141.511 210.591 140.981 210.308 140.405 210.193C139.829 210.078 139.232 210.137 138.689 210.362C138.146 210.587 137.682 210.969 137.356 211.458C137.03 211.947 136.855 212.522 136.855 213.111C136.855 213.9 137.168 214.657 137.725 215.215C138.282 215.773 139.038 216.086 139.826 216.086Z" fill="black"/>
<path d="M136.855 236.912C136.855 238.648 137.544 240.313 138.769 241.54C139.995 242.768 141.657 243.457 143.39 243.457H356.609C358.342 243.457 360.004 242.768 361.229 241.54C362.455 240.313 363.143 238.648 363.143 236.912C363.143 137.661 363.143 119.052 363.143 117.787C363.141 116.052 362.452 114.388 361.227 113.161C360.002 111.934 358.341 111.243 356.609 111.242H143.385C141.653 111.243 139.992 111.934 138.767 113.161C137.542 114.388 136.853 116.052 136.851 117.787V132.135C136.851 132.151 136.851 132.165 136.851 132.181V201.21C136.851 201.999 137.164 202.756 137.721 203.314C138.278 203.872 139.033 204.185 139.821 204.185C140.609 204.185 141.364 203.872 141.921 203.314C142.478 202.756 142.791 201.999 142.791 201.21C142.791 201.199 142.791 201.199 142.779 201.188V135.111H357.203V236.912C357.203 237.07 357.14 237.221 357.029 237.333C356.917 237.444 356.766 237.507 356.609 237.507H143.39C143.232 237.505 143.081 237.442 142.968 237.331C142.855 237.22 142.789 237.07 142.784 236.912V225.011C142.81 224.606 142.752 224.199 142.615 223.816C142.477 223.434 142.263 223.084 141.985 222.787C141.708 222.491 141.372 222.255 141 222.093C140.627 221.932 140.226 221.848 139.82 221.848C139.414 221.848 139.012 221.932 138.64 222.093C138.267 222.255 137.932 222.491 137.654 222.787C137.376 223.084 137.162 223.434 137.025 223.816C136.887 224.199 136.83 224.606 136.855 225.011V236.912ZM142.796 129.16V117.787C142.796 117.629 142.859 117.478 142.97 117.366C143.081 117.255 143.233 117.192 143.39 117.192H356.609C356.766 117.192 356.917 117.255 357.029 117.366C357.14 117.478 357.203 117.629 357.203 117.787V129.159L142.796 129.16Z" fill="black"/>
<path d="M388.891 253.421H379.03V116.668C379.025 111.013 376.781 105.59 372.789 101.59C368.798 97.5899 363.385 95.3391 357.739 95.3316H327.774C326.986 95.3316 326.231 95.645 325.674 96.203C325.117 96.7609 324.804 97.5177 324.804 98.3067C324.804 99.0958 325.117 99.8525 325.674 100.41C326.231 100.968 326.986 101.282 327.774 101.282H357.739C361.808 101.298 365.706 102.924 368.583 105.806C371.46 108.688 373.084 112.592 373.1 116.668V253.419H126.899L126.911 116.668C126.923 112.593 128.544 108.688 131.42 105.806C134.296 102.923 138.193 101.297 142.261 101.282H304.012C304.8 101.282 305.555 100.968 306.112 100.41C306.669 99.8525 306.982 99.0958 306.982 98.3067C306.982 97.5177 306.669 96.7609 306.112 96.203C305.555 95.645 304.8 95.3316 304.012 95.3316H284.836V89.655C284.827 83.3279 282.753 77.1772 278.931 72.1399C275.109 67.1027 269.747 63.4551 263.663 61.7528C266.153 59.7249 268.161 57.1666 269.54 54.2639C270.918 51.3613 271.634 48.1874 271.634 44.9729V30.4459C277.575 22.9782 276.995 9.94704 272.855 1.64636C272.678 1.29281 272.434 0.977952 272.135 0.720179C271.836 0.462406 271.488 0.266879 271.113 0.145014C270.738 0.0231491 270.342 -0.0226122 269.949 0.0104015C269.556 0.0434152 269.173 0.154542 268.823 0.337296L260.779 4.54416C259.133 5.40858 257.301 5.85791 255.443 5.85323H239.943C238.114 5.85811 236.309 6.25785 234.649 7.02521C232.989 7.79256 231.514 8.90947 230.324 10.2998C229.134 11.69 228.258 13.321 227.755 15.0814C227.251 16.8418 227.133 18.6902 227.408 20.5005L228.358 29.5283V44.9717C228.359 48.1866 229.075 51.3609 230.454 54.2636C231.834 57.1663 233.842 59.7244 236.333 61.7516C230.25 63.4546 224.889 67.1027 221.067 72.1401C217.246 77.1776 215.173 83.3282 215.164 89.655V95.3316H142.26C136.614 95.3395 131.202 97.5903 127.21 101.59C123.219 105.59 120.975 111.013 120.97 116.668V253.421H111.109C108.164 253.424 105.34 254.597 103.258 256.683C101.175 258.768 100.003 261.597 100 264.546C100.01 271.824 102.9 278.801 108.038 283.948C113.176 289.094 120.141 291.99 127.408 292H372.592C379.859 291.99 386.824 289.094 391.962 283.948C397.1 278.801 399.99 271.824 400 264.546C399.997 261.597 398.825 258.768 396.742 256.683C394.66 254.597 391.836 253.424 388.891 253.421ZM239.943 11.8107H255.445C258.26 11.8069 261.033 11.1249 263.53 9.82209L268.709 7.1147C271.004 13.8612 270.446 21.9905 267.27 26.3937H234.003C233.989 26.2568 233.306 19.7805 233.29 19.6472C233.137 18.6821 233.194 17.6951 233.457 16.7541C233.721 15.8131 234.184 14.9403 234.816 14.1958C235.448 13.4512 236.234 12.8525 237.119 12.4408C238.003 12.0291 238.967 11.8141 239.943 11.8107ZM234.304 44.9717V32.35H265.696V44.9717C265.696 49.1415 264.043 53.1404 261.099 56.0888C258.155 59.0372 254.163 60.6937 250 60.6937C245.837 60.6937 241.845 59.0372 238.901 56.0888C235.957 53.1404 234.304 49.1415 234.304 44.9717ZM221.105 89.655C221.112 83.5527 223.535 77.7023 227.842 73.3873C232.15 69.0722 237.991 66.6449 244.083 66.638H255.917C262.009 66.6449 267.85 69.0722 272.158 73.3873C276.465 77.7023 278.888 83.5527 278.895 89.655V95.3316H221.105V89.655ZM127.408 286.05C121.716 286.043 116.259 283.775 112.235 279.744C108.211 275.713 105.947 270.247 105.941 264.546C105.942 263.174 106.487 261.858 107.456 260.888C108.425 259.918 109.739 259.372 111.109 259.371H207.027L208.82 268.365C209.235 270.428 210.348 272.283 211.972 273.617C213.596 274.951 215.63 275.682 217.731 275.685H230.978C231.766 275.689 232.523 275.378 233.082 274.822C233.641 274.267 233.957 273.511 233.96 272.722C233.964 271.933 233.654 271.175 233.099 270.615C232.544 270.055 231.79 269.738 231.002 269.735H217.731C217.003 269.732 216.299 269.479 215.737 269.017C215.174 268.555 214.788 267.914 214.642 267.2L213.085 259.371H286.902L285.347 267.2C285.205 267.914 284.821 268.556 284.26 269.018C283.699 269.48 282.996 269.734 282.269 269.735H254.741C253.953 269.735 253.197 270.049 252.64 270.607C252.083 271.164 251.77 271.921 251.77 272.71C251.77 273.499 252.083 274.256 252.64 274.814C253.197 275.372 253.953 275.685 254.741 275.685H282.269C284.37 275.682 286.404 274.951 288.028 273.617C289.652 272.283 290.765 270.428 291.18 268.365L292.962 259.371H388.891C390.261 259.372 391.575 259.918 392.544 260.888C393.513 261.858 394.058 263.174 394.059 264.546C394.053 270.247 391.789 275.713 387.765 279.744C383.741 283.775 378.284 286.043 372.592 286.05H127.408Z" fill="black"/>
<path d="M242.859 275.685C244.5 275.685 245.83 274.353 245.83 272.71C245.83 271.067 244.5 269.735 242.859 269.735C241.219 269.735 239.889 271.067 239.889 272.71C239.889 274.353 241.219 275.685 242.859 275.685Z" fill="black"/>
<path d="M170.277 205.98V218.304C170.277 219.093 170.59 219.85 171.147 220.408C171.704 220.966 172.46 221.279 173.248 221.279H211.538C212.326 221.279 213.081 220.966 213.639 220.408C214.196 219.85 214.509 219.093 214.509 218.304V205.98C214.503 202.264 213.387 198.635 211.305 195.559C209.222 192.484 206.268 190.103 202.823 188.724C205.236 186.113 206.576 182.686 206.578 179.129V170.823C210.227 165.886 209.842 157.881 207.186 152.562C207.01 152.208 206.765 151.893 206.466 151.635C206.167 151.377 205.82 151.182 205.444 151.06C205.069 150.938 204.673 150.892 204.279 150.925C203.886 150.958 203.504 151.07 203.154 151.253L198.317 153.78C197.497 154.212 196.585 154.437 195.659 154.435H186.347C185.079 154.437 183.828 154.713 182.677 155.244C181.526 155.774 180.502 156.547 179.676 157.509C178.85 158.471 178.24 159.6 177.888 160.82C177.537 162.039 177.452 163.32 177.639 164.575L178.202 169.913V179.126C178.204 182.684 179.545 186.11 181.959 188.72C178.514 190.1 175.56 192.482 173.478 195.558C171.396 198.634 170.281 202.264 170.277 205.98ZM184.143 172.728H200.637V179.126C200.611 181.3 199.731 183.376 198.187 184.904C196.643 186.432 194.56 187.288 192.39 187.288C190.22 187.288 188.137 186.432 186.593 184.904C185.049 183.376 184.169 181.3 184.143 179.126V172.728ZM186.347 160.385H195.663C197.545 160.383 199.399 159.927 201.069 159.056L202.891 158.104C203.656 160.996 203.386 164.066 202.127 166.779H183.844L183.539 163.879C183.539 163.828 183.526 163.776 183.518 163.724C183.452 163.314 183.476 162.893 183.588 162.493C183.699 162.092 183.896 161.72 184.165 161.403C184.434 161.086 184.768 160.83 185.145 160.655C185.521 160.479 185.931 160.387 186.347 160.385ZM176.218 205.98C176.221 202.627 177.552 199.413 179.919 197.042C182.286 194.672 185.495 193.338 188.842 193.334H195.941C199.288 193.338 202.498 194.671 204.865 197.042C207.232 199.413 208.564 202.627 208.568 205.98V215.329H176.218V205.98Z" fill="black"/>
<path d="M234.928 172.101H256.611C257.398 172.101 258.154 171.788 258.711 171.23C259.268 170.672 259.581 169.915 259.581 169.126C259.581 168.337 259.268 167.58 258.711 167.022C258.154 166.464 257.398 166.151 256.611 166.151H234.928C234.14 166.151 233.384 166.464 232.827 167.022C232.27 167.58 231.957 168.337 231.957 169.126C231.957 169.915 232.27 170.672 232.827 171.23C233.384 171.788 234.14 172.101 234.928 172.101Z" fill="black"/>
<path d="M234.928 212.798H256.611C257.398 212.798 258.154 212.484 258.711 211.926C259.268 211.368 259.581 210.612 259.581 209.823C259.581 209.034 259.268 208.277 258.711 207.719C258.154 207.161 257.398 206.848 256.611 206.848H234.928C234.14 206.848 233.384 207.161 232.827 207.719C232.27 208.277 231.957 209.034 231.957 209.823C231.957 210.612 232.27 211.368 232.827 211.926C233.384 212.484 234.14 212.798 234.928 212.798Z" fill="black"/>
<path d="M234.928 192.449H256.611C257.398 192.449 258.154 192.135 258.711 191.578C259.268 191.02 259.581 190.263 259.581 189.474C259.581 188.685 259.268 187.928 258.711 187.37C258.154 186.812 257.398 186.499 256.611 186.499H234.928C234.14 186.499 233.384 186.812 232.827 187.37C232.27 187.928 231.957 188.685 231.957 189.474C231.957 190.263 232.27 191.02 232.827 191.578C233.384 192.135 234.14 192.449 234.928 192.449Z" fill="black"/>
<path d="M278.838 172.101H326.752C327.54 172.101 328.296 171.788 328.853 171.23C329.41 170.672 329.723 169.915 329.723 169.126C329.723 168.337 329.41 167.58 328.853 167.022C328.296 166.464 327.54 166.151 326.752 166.151H278.838C278.05 166.151 277.295 166.464 276.738 167.022C276.181 167.58 275.868 168.337 275.868 169.126C275.868 169.915 276.181 170.672 276.738 171.23C277.295 171.788 278.05 172.101 278.838 172.101Z" fill="black"/>
<path d="M278.838 193.639H300.273C301.061 193.639 301.816 193.263 302.373 192.593C302.93 191.924 303.243 191.016 303.243 190.069C303.243 189.122 302.93 188.214 302.373 187.544C301.816 186.875 301.061 186.499 300.273 186.499H278.838C278.05 186.499 277.295 186.875 276.738 187.544C276.181 188.214 275.868 189.122 275.868 190.069C275.868 191.016 276.181 191.924 276.738 192.593C277.295 193.263 278.05 193.639 278.838 193.639Z" fill="black"/>
<path d="M278.838 213.988H317.248C318.035 213.988 318.791 213.612 319.348 212.942C319.905 212.273 320.218 211.365 320.218 210.418C320.218 209.471 319.905 208.563 319.348 207.893C318.791 207.224 318.035 206.848 317.248 206.848H278.838C278.05 206.848 277.295 207.224 276.738 207.893C276.181 208.563 275.868 209.471 275.868 210.418C275.868 211.365 276.181 212.273 276.738 212.942C277.295 213.612 278.05 213.988 278.838 213.988Z" fill="black"/>
</svg>
