<svg width="136" height="60" viewBox="0 0 136 60" fill="none" xmlns="http://www.w3.org/2000/svg">
<path d="M45.2271 37.1199L47.3007 24.1786C47.3362 23.7032 47.3627 23.219 47.3805 22.726C47.3982 22.233 47.3007 21.8105 47.088 21.4583C47.0357 21.3717 46.9705 21.2957 46.8924 21.2303L46.8886 21.2272C46.6887 21.0617 46.4052 20.9653 46.0382 20.9381C45.966 20.9328 45.8906 20.9301 45.812 20.9301C45.1385 20.9125 44.6334 21.0622 44.2967 21.3791C44.2589 21.4126 44.2224 21.4473 44.1869 21.4833C43.9356 21.7378 43.74 22.0533 43.6002 22.4297C43.585 22.4703 43.5706 22.5117 43.5568 22.5538C43.5553 22.5584 43.5538 22.563 43.5523 22.5676C43.4105 23.0606 43.2953 23.5712 43.2067 24.0994L37.3157 24.1388L35.3111 24.1522C35.3196 23.9736 35.3321 23.7976 35.3486 23.624C35.4537 22.5201 35.7222 21.5177 36.154 20.6166C36.2233 20.472 36.2968 20.33 36.3745 20.1906C36.8459 19.3552 37.4178 18.6151 38.0906 17.9707C38.226 17.841 38.3654 17.7153 38.509 17.5933C38.5208 17.5833 38.5327 17.5732 38.5447 17.5632C38.6689 17.4589 38.7964 17.3577 38.9266 17.259C39.041 17.1723 39.1569 17.088 39.2745 17.006C39.2794 17.0026 39.2843 16.9992 39.2892 16.9957C39.2927 16.9933 39.2962 16.9909 39.2997 16.9884C40.2503 16.329 41.3045 15.8206 42.4623 15.4631C43.7738 15.0581 45.1385 14.8644 46.5563 14.882C48.4527 14.9172 50.0832 15.3222 51.4479 16.0969C52.8303 16.8716 53.8494 17.9633 54.5051 19.3719C54.7703 19.9197 54.9682 20.5084 55.0988 21.1382C55.2997 22.1074 55.3411 23.1737 55.2229 24.3371L53.2025 36.9614C53.0429 38.0179 52.9189 39.1183 52.8303 40.2628C52.82 40.3938 52.8124 40.5243 52.8076 40.6541C52.775 41.5377 52.87 42.3937 53.0927 43.2222C53.1187 43.3189 53.1464 43.4153 53.1759 43.5113L53.1493 44.0131L51.1011 44.0201L45.4398 44.0395C45.2197 43.3145 45.0753 42.5744 45.0066 41.8192C44.9703 41.4191 44.9551 41.0147 44.9613 40.6061C44.979 39.4264 45.0676 38.2644 45.2271 37.1199ZM48.0185 26.5556L47.2475 31.1511L45.1474 31.1247C44.4739 31.1423 43.8713 31.2831 43.3396 31.5472C42.8256 31.7937 42.3737 32.1371 41.9838 32.5773C41.6116 32.9998 41.3103 33.4928 41.0799 34.0563C40.8673 34.6021 40.7166 35.1919 40.628 35.8258C40.5748 36.2483 40.5571 36.6709 40.5748 37.0935C40.5925 37.4985 40.6989 37.8418 40.8938 38.1235C41.1065 38.3876 41.4876 38.5285 42.037 38.5461C42.6041 38.5461 43.1447 38.4228 43.6586 38.1763C44.1903 37.9122 44.6334 37.5689 44.9879 37.1463C45.3423 36.7237 45.555 36.2219 45.6259 35.6409L46.5563 38.9158C46.2373 39.6553 45.8829 40.3684 45.493 41.0551C45.3415 41.3218 45.1794 41.5765 45.0066 41.8192C44.7345 42.2016 44.4358 42.5544 44.1106 42.8775C43.5789 43.4057 42.9674 43.8282 42.2762 44.1452C41.6028 44.4621 40.7875 44.6118 39.8305 44.5942C38.2708 44.5765 36.9328 44.1892 35.8162 43.4321C34.8574 42.7668 34.1011 41.9262 33.5475 40.9104C33.4564 40.7433 33.3708 40.5714 33.2907 40.3948C33.1877 40.1604 33.0952 39.9217 33.0134 39.6787C32.6588 38.6254 32.5031 37.4908 32.5463 36.2748C32.5851 35.5199 32.6832 34.8121 32.8407 34.1516C33.0432 33.3023 33.3438 32.531 33.7426 31.8377C33.8312 31.6837 33.9234 31.5332 34.0193 31.3863C34.5959 30.5021 35.303 29.7475 36.1404 29.1224C36.277 29.0205 36.4171 28.922 36.5606 28.8269C36.5716 28.8194 36.5827 28.812 36.5937 28.8045C37.7551 28.0236 39.0555 27.4501 40.4951 27.0838C41.9661 26.7141 43.4903 26.5292 45.0676 26.5292L48.0185 26.5556Z" fill="#A0430A"/>
<path fill-rule="evenodd" clip-rule="evenodd" d="M37.3953 23.624L37.3157 24.1388L35.3111 24.1522C35.3196 23.9736 35.3321 23.7976 35.3486 23.624H37.3953ZM36.8641 27.0573L37.1063 25.492L33.8844 25.5139L33.9509 24.089C33.9583 23.9327 33.9685 23.7777 33.9816 23.624H24.2626L23.1992 29.7249H28.1439L26.8147 36.4068C26.3362 36.6357 25.8754 36.8558 25.4323 37.0671C25.0069 37.2784 24.5639 37.4456 24.1031 37.5689C23.66 37.6921 23.1549 37.745 22.5878 37.7274C21.2585 37.7097 20.2749 37.384 19.6369 36.7502C18.9989 36.0987 18.5824 35.2711 18.3874 34.2675C18.1925 33.2639 18.1304 32.2163 18.2013 31.1247C18.2899 30.0154 18.3874 28.9854 18.4937 28.0346L19.4774 21.5111C19.6014 20.4547 19.7964 19.3455 20.0622 18.1834C20.3458 17.0213 20.7534 15.9473 21.2851 14.9613C21.8168 13.9577 22.5169 13.1565 23.3853 12.5579C24.2714 11.9592 25.3791 11.6863 26.7084 11.7391C27.9667 11.792 28.8617 12.1177 29.3934 12.7163C29.9428 13.315 30.2795 14.0809 30.4036 15.0141C30.5454 15.9297 30.6074 16.9069 30.5897 17.9457L36.2531 17.9646C36.7939 17.3018 37.4101 16.7077 38.1007 16.1843C38.2074 16.1035 38.3152 16.0245 38.4243 15.9473C38.2693 14.2189 37.9086 12.6577 37.3422 11.2638C36.5801 9.32697 35.3572 7.81275 33.6735 6.7211C31.9898 5.61185 29.7833 5.03962 27.054 5.0044C24.5905 4.95158 22.4283 5.37415 20.5673 6.27212C18.7241 7.15248 17.1645 8.37618 15.8885 9.94322C14.6301 11.4926 13.6111 13.271 12.8312 15.2782C12.0514 17.2854 11.5109 19.3895 11.2096 21.5904L10.1994 28.0082C9.93354 30.1034 9.93354 32.1371 10.1994 34.1091C10.483 36.0635 11.0678 37.8242 11.954 39.3912C12.8401 40.9407 14.0807 42.182 15.6758 43.1152C17.2886 44.0307 19.2824 44.5061 21.6573 44.5413C23.2169 44.5589 24.812 44.4005 26.4425 44.0659C28.073 43.7314 29.6238 43.2032 31.0948 42.4813C31.5646 42.2479 32.0132 41.9926 32.4407 41.7154C32.2998 41.4692 32.1696 41.2144 32.0501 40.951L32.0435 40.9365C31.4049 39.4835 31.1265 37.906 31.1861 36.2274V36.2169L31.1875 36.2063C31.2846 34.3146 31.7253 32.6194 32.5605 31.1671C33.37 29.7598 34.4504 28.602 35.7932 27.71L36.2917 27.3891C36.4796 27.2738 36.6704 27.1632 36.8641 27.0573ZM36.5937 28.8045L36.5606 28.8269C36.4171 28.922 36.277 29.0205 36.1404 29.1224L36.1322 29.1282C35.2982 29.7521 34.594 30.5049 34.0193 31.3863C33.9234 31.5332 33.8312 31.6837 33.7426 31.8377C33.6541 31.9917 33.5699 32.1504 33.491 32.312C33.2149 32.8781 32.9982 33.4912 32.8407 34.1516C32.6832 34.8121 32.5851 35.5199 32.5463 36.2748C32.5031 37.4908 32.6588 38.6254 33.0134 39.6787C33.0952 39.9217 33.1877 40.1604 33.2907 40.3948C33.3708 40.5714 33.4564 40.7433 33.5475 40.9104C34.0399 40.5095 34.4984 40.0736 34.923 39.6025L36.5937 28.8045ZM43.6002 22.4297C43.74 22.0533 43.9356 21.7378 44.1869 21.4833L44.174 21.4955C43.9017 21.7756 43.6963 22.1286 43.5568 22.5538C43.5706 22.5117 43.585 22.4703 43.6002 22.4297ZM46.0382 20.9381C46.4052 20.9653 46.6887 21.0617 46.8886 21.2272L46.8924 21.2303C46.6929 21.0634 46.4093 20.966 46.0415 20.9382L46.0382 20.9381ZM50.8649 45.3725L49.1829 55H57.0519L59.4914 41.029C59.8699 41.784 60.3416 42.453 60.9067 43.0359C61.846 43.9867 63.1132 44.4885 64.7082 44.5413C66.6046 44.6118 68.1997 44.2332 69.4934 43.4057C70.8049 42.5781 71.8683 41.4689 72.6836 40.0779C73.5166 38.6869 74.1546 37.1727 74.5977 35.5353C75.0407 33.8978 75.3509 32.3131 75.5281 30.7813L75.8206 28.5628C75.9801 27.119 76.0332 25.6048 75.9801 24.0202C75.9269 22.4355 75.6699 20.9653 75.2091 19.6096C74.7483 18.2362 73.9774 17.1181 72.8963 16.2554C71.8329 15.375 70.3619 14.9172 68.4832 14.882C66.7995 14.8292 65.364 15.2694 64.1765 16.2026C63.8487 16.4602 63.5357 16.7373 63.2376 17.0339L63.3524 15.4367H56.0949L55.5679 18.4528C55.6278 18.5681 55.6855 18.6852 55.7409 18.8043C56.5402 20.4652 56.7901 22.3755 56.577 24.4733L56.573 24.5116L56.5677 24.5499L54.5472 37.1743C54.3938 38.1924 54.273 39.2562 54.187 40.366V40.3686C54.1112 41.3337 54.2108 42.2463 54.4781 43.1167L54.5472 43.3451L54.5353 43.5828L54.4409 45.3603L50.8649 45.3725ZM44.1106 42.8775C44.4358 42.5544 44.7345 42.2016 45.0066 41.8192C45.0753 42.5744 45.2197 43.3145 45.4398 44.0395C45.2186 43.3109 45.0757 42.567 45.0074 41.808C44.7337 42.1934 44.438 42.5522 44.1106 42.8775ZM53.1493 44.0131L51.1011 44.0201L55.0988 21.1382C55.2997 22.1074 55.3411 23.1737 55.2229 24.3371L53.2025 36.9614C53.0429 38.0179 52.9189 39.1183 52.8303 40.2628L52.8076 40.6541C52.775 41.5377 52.87 42.3937 53.0927 43.2222C53.1187 43.3189 53.1464 43.4153 53.1759 43.5113L53.1493 44.0131ZM62.7071 22.6123L60.3996 35.8278C60.4968 36.2487 60.6481 36.6354 60.8535 36.9879C61.2434 37.6569 61.9878 38.0179 63.0866 38.0707C64.0436 38.1059 64.8057 37.8858 65.3728 37.4104C65.9577 36.935 66.4008 36.3188 66.7021 35.5617C67.0211 34.787 67.2426 33.977 67.3667 33.1319C67.4907 32.2867 67.5882 31.512 67.6591 30.8077L67.8984 28.51C67.9515 27.9642 68.0224 27.3039 68.111 26.5292C68.2174 25.7545 68.244 24.9798 68.1908 24.205C68.1554 23.4127 67.9515 22.7524 67.5794 22.2242C67.2249 21.696 66.6223 21.4143 65.7716 21.3791C64.8677 21.3439 64.1234 21.5199 63.5385 21.9073C63.2292 22.1029 62.952 22.3379 62.7071 22.6123ZM38.509 17.5933C38.3654 17.7153 38.226 17.841 38.0906 17.9707L38.5119 17.9721C38.5119 17.8451 38.5109 17.7188 38.509 17.5933ZM42.4623 15.4631C41.3045 15.8206 40.2503 16.329 39.2997 16.9884L39.2892 16.9957C40.108 16.4264 41.004 15.9694 41.9768 15.6244L42.4623 15.4631ZM38.5447 17.5632C38.6689 17.4589 38.7964 17.3577 38.9266 17.259L38.5447 17.5632ZM36.3745 20.1906L36.154 20.6166C36.2233 20.472 36.2968 20.33 36.3745 20.1906Z" fill="#A0430A"/>
<path fill-rule="evenodd" clip-rule="evenodd" d="M121.834 30C121.834 41.5062 112.507 50.8333 101 50.8333C97.667 50.8333 94.517 50.05 91.7254 48.6583C90.9881 48.2764 90.1366 48.1778 89.3316 48.3812L84.6941 49.6229C84.2351 49.7454 83.7519 49.7449 83.2931 49.6217C82.8343 49.4984 82.416 49.2566 82.0802 48.9206C81.7443 48.5845 81.5028 48.1661 81.3798 47.7072C81.2569 47.2483 81.2567 46.7652 81.3795 46.3062L82.6191 41.6687C82.8213 40.8642 82.722 40.0134 82.3399 39.277C80.9058 36.3951 80.1619 33.219 80.167 30C80.167 18.4937 89.4941 9.16663 101 9.16663C112.507 9.16663 121.834 18.4937 121.834 30ZM101 20.1041C101.415 20.1041 101.812 20.2687 102.105 20.5618C102.398 20.8548 102.563 21.2522 102.563 21.6666V21.6875C104.832 22.2604 106.73 24.0479 106.73 26.527C106.73 26.9414 106.565 27.3389 106.272 27.6319C105.979 27.9249 105.581 28.0895 105.167 28.0895C104.753 28.0895 104.355 27.9249 104.062 27.6319C103.769 27.3389 103.605 26.9414 103.605 26.527C103.605 25.727 102.717 24.6187 101 24.6187C99.2837 24.6187 98.3962 25.727 98.3962 26.527C98.3962 27.327 99.2837 28.4375 101 28.4375C103.886 28.4375 106.73 30.4375 106.73 33.4729C106.73 35.952 104.832 37.7416 102.563 38.3125V38.3333C102.563 38.7477 102.398 39.1451 102.105 39.4382C101.812 39.7312 101.415 39.8958 101 39.8958C100.586 39.8958 100.189 39.7312 99.8955 39.4382C99.6025 39.1451 99.4379 38.7477 99.4379 38.3333V38.3125C97.1691 37.7416 95.2712 35.952 95.2712 33.4729C95.2712 33.0585 95.4358 32.661 95.7288 32.368C96.0219 32.075 96.4193 31.9104 96.8337 31.9104C97.2481 31.9104 97.6455 32.075 97.9385 32.368C98.2316 32.661 98.3962 33.0585 98.3962 33.4729C98.3962 34.2729 99.2837 35.3812 101 35.3812C102.717 35.3812 103.605 34.2729 103.605 33.4729C103.605 32.6729 102.717 31.5625 101 31.5625C98.1149 31.5625 95.2712 29.5625 95.2712 26.527C95.2712 24.0479 97.1691 22.2604 99.4379 21.6875V21.6666C99.4379 21.2522 99.6025 20.8548 99.8955 20.5618C100.189 20.2687 100.586 20.1041 101 20.1041Z" fill="#A0430A"/>
</svg>
