<svg width="50" height="50" viewBox="0 0 50 50" fill="none" xmlns="http://www.w3.org/2000/svg">
<path fill-rule="evenodd" clip-rule="evenodd" d="M45.8332 25C45.8332 36.5062 36.5061 45.8333 24.9999 45.8333C21.6665 45.8333 18.5165 45.05 15.7249 43.6583C14.9876 43.2764 14.1361 43.1778 13.3311 43.3812L8.69361 44.6229C8.23459 44.7454 7.75143 44.7449 7.29263 44.6217C6.83382 44.4984 6.41551 44.2566 6.07969 43.9206C5.74386 43.5845 5.50234 43.1661 5.37935 42.7072C5.25637 42.2483 5.25626 41.7652 5.37903 41.3062L6.61861 36.6687C6.82082 35.8642 6.72151 35.0134 6.33945 34.277C4.90535 31.3951 4.16143 28.219 4.16653 25C4.16653 13.4937 13.4936 4.16663 24.9999 4.16663C36.5061 4.16663 45.8332 13.4937 45.8332 25ZM24.9999 15.1041C25.4143 15.1041 25.8117 15.2687 26.1047 15.5618C26.3977 15.8548 26.5624 16.2522 26.5624 16.6666V16.6875C28.8311 17.2604 30.729 19.0479 30.729 21.527C30.729 21.9414 30.5644 22.3389 30.2714 22.6319C29.9784 22.9249 29.5809 23.0895 29.1665 23.0895C28.7521 23.0895 28.3547 22.9249 28.0617 22.6319C27.7687 22.3389 27.604 21.9414 27.604 21.527C27.604 20.727 26.7165 19.6187 24.9999 19.6187C23.2832 19.6187 22.3957 20.727 22.3957 21.527C22.3957 22.327 23.2832 23.4375 24.9999 23.4375C27.8853 23.4375 30.729 25.4375 30.729 28.4729C30.729 30.952 28.8311 32.7416 26.5624 33.3125V33.3333C26.5624 33.7477 26.3977 34.1451 26.1047 34.4382C25.8117 34.7312 25.4143 34.8958 24.9999 34.8958C24.5855 34.8958 24.188 34.7312 23.895 34.4382C23.602 34.1451 23.4374 33.7477 23.4374 33.3333V33.3125C21.1686 32.7416 19.2707 30.952 19.2707 28.4729C19.2707 28.0585 19.4353 27.661 19.7283 27.368C20.0214 27.075 20.4188 26.9104 20.8332 26.9104C21.2476 26.9104 21.645 27.075 21.938 27.368C22.2311 27.661 22.3957 28.0585 22.3957 28.4729C22.3957 29.2729 23.2832 30.3812 24.9999 30.3812C26.7165 30.3812 27.604 29.2729 27.604 28.4729C27.604 27.6729 26.7165 26.5625 24.9999 26.5625C22.1144 26.5625 19.2707 24.5625 19.2707 21.527C19.2707 19.0479 21.1686 17.2604 23.4374 16.6875V16.6666C23.4374 16.2522 23.602 15.8548 23.895 15.5618C24.188 15.2687 24.5855 15.1041 24.9999 15.1041Z" fill="#A0430A"/>
</svg>
