<svg width="500" height="276" viewBox="0 0 500 276" fill="none" xmlns="http://www.w3.org/2000/svg">
<path d="M281.268 94.1261H309.957C313.288 94.1261 315.974 96.8123 315.974 100.143V123.46C315.974 126.791 313.288 129.477 309.957 129.477H281.268C277.937 129.477 275.251 126.791 275.251 123.46V100.143C275.251 96.8123 277.937 94.1261 281.268 94.1261Z" fill="#FC3850"/>
<path d="M295.666 113.467C298.633 113.467 301.039 111.062 301.039 108.095C301.039 105.127 298.633 102.722 295.666 102.722C292.699 102.722 290.294 105.127 290.294 108.095C290.294 111.062 292.699 113.467 295.666 113.467Z" fill="#F9677F"/>
<path d="M275.251 123.567V100.143C275.251 96.8124 277.937 94.1262 281.268 94.1262H309.957C310.817 94.1262 311.569 94.3411 312.321 94.6634C325.967 60.172 309.097 21.1677 274.606 7.5216C240.115 -6.12454 201.11 10.7451 187.464 45.2365C173.818 79.7279 190.688 118.732 225.179 132.378C243.231 139.47 263.431 138.503 280.623 129.692C277.615 129.262 275.251 126.684 275.251 123.567Z" fill="#FACB35"/>
<path d="M225.716 54.1547C226.253 54.1547 226.683 54.1547 227.113 54.2622V53.1877C227.113 52.543 227.65 52.0057 228.295 52.0057C228.402 52.0057 228.402 52.0057 228.51 52.0057C232.593 52.8653 244.735 54.3696 253.008 43.947C253.438 43.4097 254.19 43.3023 254.728 43.7321L254.835 43.8395C256.769 45.6662 261.712 49.4269 271.06 49.6418C271.705 49.6418 272.242 50.1791 272.242 50.8238C272.242 50.9312 272.242 51.0387 272.242 51.1461V54.1547C275.143 53.7249 278.152 54.5845 280.193 56.6261V39.9713C280.193 32.8796 274.391 27.0773 267.299 27.0773C264.935 27.0773 262.679 27.722 260.745 28.904C258.381 25.0358 254.19 22.6719 249.678 22.5645H243.123C230.337 22.5645 219.914 32.9871 219.914 45.7736V56.1963C221.526 54.9069 223.567 54.1547 225.716 54.1547Z" fill="#843418"/>
<path d="M275.251 123.567V106.16L270.953 105.086L260.423 99.9283L255.587 109.921C255.265 110.673 254.513 111.103 253.653 111.103H246.132C245.272 111.103 244.52 110.566 244.198 109.814L239.685 99.9283L229.155 105.086L211.64 109.491C207.88 110.458 205.193 113.682 204.979 117.658L204.871 119.592C225.609 138.503 255.91 142.478 280.838 129.585C277.615 129.262 275.251 126.683 275.251 123.567Z" fill="#1387CE"/>
<path d="M273.639 54.1548C273.102 54.1548 272.672 54.1548 272.135 54.2622C272.135 54.7995 272.242 55.2293 272.242 55.7665V71.2393C272.242 71.7766 272.242 72.2064 272.135 72.7436C277.292 73.6032 282.128 70.0574 282.88 65.0072C283.739 59.8496 280.193 55.0144 275.143 54.2622C274.606 54.2622 274.176 54.1548 273.639 54.1548Z" fill="#F9C1A8"/>
<path d="M227.113 71.3468V55.874C227.113 55.3367 227.113 54.9069 227.221 54.3697C222.063 53.5101 217.228 56.9485 216.368 62.1061C215.509 67.2637 218.947 72.0989 224.105 72.9585C225.179 73.1734 226.146 73.1734 227.221 72.9585C227.221 72.4213 227.113 71.884 227.113 71.3468Z" fill="#F9C1A8"/>
<path d="M253.009 44.0546C244.735 54.3697 232.593 52.9729 228.51 52.1133C227.865 52.0058 227.221 52.4356 227.113 53.0803C227.113 53.1878 227.113 53.1878 227.113 53.2952V71.4543C227.113 83.9185 237.213 93.9113 249.678 94.0187C262.142 94.0187 272.135 83.9185 272.242 71.4543V51.2537C272.242 51.1462 272.242 51.0388 272.242 50.9313C272.242 50.2866 271.705 49.7494 271.06 49.7494C261.712 49.4271 256.769 45.7738 254.835 43.9471C254.405 43.5173 253.546 43.5173 253.116 43.9471C253.116 43.9471 253.116 44.0546 253.009 44.0546Z" fill="#F9C1A8"/>
<path d="M249.678 93.9112C246.239 93.9112 242.693 93.0516 239.577 91.5473V99.9284L244.09 109.814C244.413 110.566 245.165 111.103 246.024 111.103H253.546C254.405 111.103 255.158 110.673 255.48 109.921L260.315 99.9284V91.225C257.092 92.9442 253.438 93.9112 249.678 93.9112Z" fill="#F9C1A8"/>
<path d="M284.062 257.665C284.062 249.499 277.4 242.837 269.234 242.837H230.874C222.708 242.837 216.046 249.499 216.046 257.665C216.046 265.831 222.708 272.493 230.874 272.493H269.234C277.4 272.493 284.062 265.831 284.062 257.665Z" fill="#A0430A"/>
<path d="M307.486 152.471H192.514C184.348 152.471 177.686 159.133 177.686 167.3C177.686 175.466 184.348 182.128 192.514 182.128H307.486C315.652 182.128 322.314 175.466 322.314 167.3C322.314 159.133 315.652 152.471 307.486 152.471Z" fill="#A0430A"/>
<path d="M307.486 197.6H192.514C184.348 197.6 177.686 204.262 177.686 212.428C177.686 220.595 184.348 227.256 192.514 227.256H307.486C315.652 227.256 322.314 220.595 322.314 212.428C322.314 204.262 315.652 197.6 307.486 197.6Z" fill="#A0430A"/>
<path d="M273.639 75.6446C272.994 75.6446 272.35 75.5371 271.705 75.4297C270.308 75.2148 269.341 74.0329 269.448 72.636C269.448 72.2062 269.448 71.7764 269.448 71.3466V55.8738C269.448 55.444 269.448 55.0142 269.448 54.5844C269.341 53.1876 270.308 52.0056 271.705 51.7907C278.259 50.7162 284.491 55.2291 285.566 61.7836C286.64 68.338 282.128 74.5701 275.573 75.6446C274.928 75.6446 274.284 75.6446 273.639 75.6446ZM274.928 56.9483V70.1647C278.582 69.52 280.946 65.9741 280.301 62.3208C279.764 59.6346 277.615 57.4856 274.928 56.9483Z" fill="black"/>
<path d="M225.716 75.6449C219.054 75.5374 213.682 70.0575 213.897 63.2881C214.004 56.8411 219.269 51.5761 225.716 51.4686C226.361 51.4686 227.006 51.4686 227.65 51.5761C229.047 51.791 230.014 52.9729 229.907 54.3698C229.907 54.7996 229.907 55.2294 229.907 55.6592V71.132C229.907 71.5618 229.907 71.9916 229.907 72.4214C230.014 73.8182 229.047 75.0002 227.65 75.2151C227.006 75.6449 226.361 75.6449 225.716 75.6449ZM224.427 56.9486C220.774 57.5933 218.41 61.1391 219.054 64.7924C219.592 67.4787 221.741 69.6277 224.427 70.1649V56.9486Z" fill="black"/>
<path d="M249.678 96.5974C235.709 96.5974 224.534 85.3152 224.427 71.3467V53.2952C224.427 51.1462 226.146 49.427 228.295 49.427C228.618 49.427 228.832 49.427 229.047 49.5344C233.238 50.394 243.661 51.4685 250.86 42.4427C252.149 40.7235 254.62 40.5086 256.34 41.798C256.447 41.9055 256.555 42.0129 256.662 42.0129C258.166 43.4098 262.464 46.8482 271.06 47.0631C273.102 47.1705 274.821 48.7823 274.821 50.9313C274.821 51.0387 274.821 51.1462 274.821 51.3611V71.4542C274.821 85.3152 263.539 96.5974 249.678 96.5974ZM229.799 55.0143V71.3467C229.799 82.3066 238.718 91.225 249.678 91.225C260.638 91.225 269.448 82.3066 269.556 71.3467V52.4356C261.712 51.8983 256.877 49.1046 254.191 46.9556C246.024 55.9814 234.957 55.7665 229.799 55.0143Z" fill="black"/>
<path d="M280.193 59.5273C279.549 59.5273 278.797 59.205 278.367 58.7752C277.077 57.5932 275.466 56.8411 273.746 56.8411C273.424 56.8411 273.102 56.8411 272.672 56.9485C271.168 57.1634 269.878 56.1964 269.556 54.6921C269.556 54.5846 269.556 54.3697 269.556 54.2623V52.3282C261.712 51.7909 256.877 48.9972 254.191 46.8482C246.024 55.9815 234.957 55.6591 229.799 54.907C229.477 56.1964 228.188 57.056 226.791 56.8411C224.964 56.5187 223.03 57.056 221.526 58.2379C220.344 59.205 218.625 58.9901 217.765 57.8081C217.335 57.3783 217.228 56.7336 217.228 56.0889V45.6663C217.228 31.3755 228.832 19.7709 243.123 19.7709H249.678C254.298 19.7709 258.596 21.8124 261.605 25.3583C263.431 24.6061 265.365 24.2838 267.299 24.2838C275.895 24.2838 282.88 31.268 282.88 39.864V56.7336C282.88 58.3454 281.698 59.5273 280.193 59.5273ZM274.928 51.576C275.788 51.6835 276.648 51.8984 277.507 52.1133V39.9714C277.507 34.3841 272.994 29.7637 267.407 29.7637C265.58 29.7637 263.754 30.301 262.142 31.268C260.852 32.0202 259.241 31.5904 258.489 30.301C256.662 27.1849 253.331 25.3583 249.785 25.3583H243.231C231.841 25.3583 222.708 34.599 222.708 45.8812V52.0058C223.46 51.7909 224.212 51.6835 225.072 51.576C225.824 49.9643 227.65 49.1047 229.37 49.427C233.56 50.2866 243.983 51.3611 251.182 42.3353C252.471 40.6161 254.943 40.4012 256.662 41.6906C256.769 41.7981 256.877 41.9055 256.984 42.013C258.489 43.4098 262.787 46.8482 271.383 47.0631C273.424 47.1706 275.143 48.7823 275.143 50.9313C275.143 51.0388 275.143 51.1462 275.143 51.3611L274.928 51.576Z" fill="black"/>
<path d="M250 126.898C249.785 126.898 249.678 126.898 249.463 126.791C249.248 126.791 249.14 126.683 248.925 126.576C248.711 126.469 248.603 126.469 248.496 126.361C248.388 126.254 248.173 126.146 248.066 126.039C246.991 124.964 246.991 123.245 248.066 122.278C248.711 121.633 249.57 121.418 250.43 121.526C250.645 121.526 250.752 121.633 250.967 121.633C251.182 121.741 251.289 121.741 251.397 121.848C251.504 121.956 251.719 122.063 251.827 122.171C252.901 123.245 252.901 124.964 251.827 125.931C251.397 126.576 250.752 126.898 250 126.898Z" fill="black"/>
<path d="M253.653 113.682H246.132C244.198 113.682 242.479 112.607 241.726 110.781L237.214 100.895C237.106 100.573 236.999 100.143 236.999 99.8209V91.4398C236.999 89.9355 238.181 88.7535 239.685 88.7535C240.115 88.7535 240.545 88.861 240.867 89.0759C243.661 90.4727 246.669 91.2249 249.678 91.2249C253.009 91.2249 256.232 90.3653 259.133 88.861C260.423 88.1088 262.034 88.6461 262.787 89.9355C263.002 90.3653 263.109 90.7951 263.109 91.2249V99.9283C263.109 100.358 263.002 100.788 262.894 101.11L258.059 111.103C257.199 112.607 255.48 113.682 253.653 113.682ZM246.347 108.309H253.224L257.629 99.1762V95.2005C252.686 96.9197 247.314 96.9197 242.264 95.4154V99.1762L246.347 108.309Z" fill="black"/>
<path d="M250 84.0259C246.239 84.0259 242.693 82.0918 240.544 78.9757C239.685 77.7938 240.007 76.0746 241.297 75.215C242.479 74.3554 244.198 74.6777 245.057 75.9671C246.884 78.7608 250.645 79.4055 253.438 77.5789C254.083 77.1491 254.62 76.6118 255.05 75.9671C255.91 74.7852 257.522 74.4628 258.811 75.215C260.1 75.9671 260.315 77.6863 259.563 78.9757C257.307 82.1992 253.761 84.0259 250 84.0259Z" fill="black"/>
<path d="M241.404 66.2966C239.9 66.2966 238.718 65.1146 238.718 63.6103C238.718 62.8582 239.04 62.2135 239.47 61.6762C240.544 60.7092 242.156 60.7092 243.231 61.6762C243.768 62.2135 243.983 62.8582 243.983 63.6103C243.983 64.3625 243.66 65.0072 243.231 65.5444C243.123 65.6519 243.016 65.7593 242.801 65.8668C242.693 65.9742 242.479 66.0817 242.371 66.0817C242.264 66.1891 242.049 66.1891 241.834 66.2966C241.726 66.2966 241.619 66.2966 241.404 66.2966Z" fill="black"/>
<path d="M258.596 66.2965C257.844 66.2965 257.199 65.9741 256.662 65.5443C256.554 65.4369 256.447 65.3294 256.34 65.1145C256.232 65.0071 256.125 64.7922 256.125 64.6847C256.017 64.4698 256.017 64.3624 256.017 64.1475C255.91 63.8251 255.91 63.3953 256.017 63.073C256.017 62.8581 256.125 62.7506 256.125 62.5357C256.232 62.4283 256.232 62.2134 256.34 62.1059C256.447 61.9985 256.554 61.7836 256.662 61.6761C257.307 61.0314 258.166 60.8165 259.026 60.924C259.241 60.924 259.348 61.0314 259.563 61.0314C259.778 61.1389 259.885 61.1389 259.993 61.2463C260.1 61.3538 260.315 61.4612 260.423 61.5687C260.53 61.6761 260.638 61.7836 260.745 61.9985C260.852 62.1059 260.96 62.3208 260.96 62.4283C261.067 62.6432 261.067 62.7506 261.067 62.9655C261.067 63.1804 261.175 63.2879 261.175 63.5028C261.175 63.7177 261.175 63.8251 261.067 64.04C261.067 64.2549 260.96 64.3624 260.96 64.5773C260.852 64.7922 260.852 64.8996 260.745 65.0071C260.638 65.1145 260.53 65.3294 260.423 65.4369C260.315 65.5443 260.208 65.6518 259.993 65.7592C259.671 65.9741 259.348 66.0816 259.026 66.189C258.918 66.2965 258.811 66.2965 258.596 66.2965Z" fill="black"/>
<path d="M307.486 184.921H192.514C182.844 184.921 175 177.077 175 167.407C175 157.736 182.844 149.893 192.514 149.893H307.486C317.156 149.893 325 157.736 325 167.407C325 177.077 317.156 184.921 307.486 184.921ZM192.514 155.158C185.745 155.158 180.372 160.638 180.372 167.299C180.372 174.069 185.852 179.441 192.514 179.441H307.486C314.255 179.441 319.628 173.961 319.628 167.299C319.628 160.53 314.148 155.158 307.486 155.158H192.514Z" fill="black"/>
<path d="M307.486 230.05H192.514C182.844 230.05 175 222.206 175 212.536C175 202.865 182.844 195.021 192.514 195.021H307.486C317.156 195.021 325 202.865 325 212.536C325 222.206 317.156 230.05 307.486 230.05ZM192.514 200.287C185.745 200.287 180.372 205.766 180.372 212.428C180.372 219.09 185.745 224.678 192.514 224.678H307.486C314.255 224.678 319.628 219.198 319.628 212.536C319.628 205.874 314.148 200.394 307.486 200.394H192.514V200.287Z" fill="black"/>
<path d="M269.234 275.179H230.874C221.203 275.179 213.36 267.335 213.36 257.665C213.36 247.994 221.203 240.151 230.874 240.151H269.234C278.904 240.151 286.748 247.994 286.748 257.665C286.748 267.335 278.904 275.179 269.234 275.179ZM230.766 245.416C223.997 245.416 218.625 250.896 218.625 257.557C218.625 264.327 224.105 269.699 230.766 269.699H269.126C275.895 269.699 281.268 264.219 281.268 257.557C281.268 250.788 275.788 245.416 269.126 245.416H230.766Z" fill="black"/>
<path d="M208.417 218.231C207.665 218.231 207.02 217.908 206.483 217.479L200.466 211.461C199.391 210.387 199.391 208.775 200.358 207.701C201.433 206.626 203.044 206.626 204.119 207.593C204.119 207.593 204.119 207.593 204.226 207.701L210.244 213.718C211.318 214.792 211.318 216.512 210.244 217.479C209.814 217.908 209.169 218.231 208.417 218.231Z" fill="black"/>
<path d="M202.4 218.231C200.895 218.231 199.713 217.049 199.713 215.544C199.713 214.792 200.036 214.148 200.466 213.61L206.483 207.593C207.557 206.519 209.169 206.519 210.243 207.486C211.318 208.453 211.318 210.172 210.351 211.246C210.351 211.246 210.351 211.246 210.243 211.354L204.226 217.371C203.796 217.908 203.152 218.231 202.4 218.231Z" fill="black"/>
<path d="M230.659 218.231C229.907 218.231 229.262 217.908 228.725 217.479L222.708 211.461C221.633 210.387 221.633 208.775 222.6 207.701C223.675 206.626 225.287 206.626 226.361 207.593C226.361 207.593 226.361 207.593 226.469 207.701L232.486 213.718C233.56 214.792 233.56 216.512 232.486 217.479C232.056 217.908 231.411 218.231 230.659 218.231Z" fill="black"/>
<path d="M224.749 218.231C223.245 218.231 222.063 217.049 222.063 215.544C222.063 214.792 222.385 214.148 222.815 213.61L228.832 207.593C229.907 206.519 231.519 206.519 232.593 207.486C233.668 208.453 233.668 210.172 232.701 211.246C232.701 211.246 232.701 211.246 232.593 211.354L226.576 217.371C226.146 217.908 225.394 218.231 224.749 218.231Z" fill="black"/>
<path d="M253.009 218.231C252.257 218.231 251.612 217.908 251.075 217.479L245.057 211.461C243.983 210.387 243.983 208.775 244.95 207.701C246.024 206.626 247.636 206.626 248.711 207.593C248.711 207.593 248.711 207.593 248.818 207.701L254.835 213.718C255.91 214.792 255.91 216.512 254.835 217.479C254.406 217.908 253.761 218.231 253.009 218.231Z" fill="black"/>
<path d="M246.992 218.231C245.487 218.231 244.305 217.049 244.305 215.544C244.305 214.792 244.628 214.148 245.057 213.61L251.075 207.593C252.149 206.519 253.761 206.519 254.835 207.486C255.91 208.453 255.91 210.172 254.943 211.246C254.943 211.246 254.943 211.246 254.835 211.354L248.818 217.371C248.388 217.908 247.744 218.231 246.992 218.231Z" fill="black"/>
<path d="M275.251 218.231C274.499 218.231 273.854 217.908 273.317 217.479L267.3 211.461C266.225 210.387 266.225 208.775 267.192 207.701C268.159 206.626 269.878 206.626 270.953 207.593C270.953 207.593 270.953 207.593 271.06 207.701L277.078 213.718C278.152 214.792 278.152 216.512 277.078 217.479C276.648 217.908 276.003 218.231 275.251 218.231Z" fill="black"/>
<path d="M269.341 218.231C267.837 218.231 266.655 217.049 266.655 215.544C266.655 214.792 266.977 214.148 267.407 213.61L273.424 207.593C274.499 206.519 276.11 206.519 277.185 207.486C278.259 208.453 278.259 210.172 277.292 211.246C277.292 211.246 277.292 211.246 277.185 211.354L271.168 217.371C270.738 217.908 269.986 218.231 269.341 218.231Z" fill="black"/>
<path d="M297.6 218.231C296.848 218.231 296.204 217.908 295.666 217.479L289.649 211.461C288.575 210.387 288.575 208.775 289.542 207.701C290.509 206.626 292.228 206.626 293.302 207.593C293.302 207.593 293.302 207.593 293.41 207.701L299.427 213.718C300.501 214.792 300.501 216.512 299.427 217.479C298.997 217.908 298.353 218.231 297.6 218.231Z" fill="black"/>
<path d="M291.583 218.231C290.079 218.231 288.897 217.049 288.897 215.544C288.897 214.792 289.219 214.148 289.649 213.61L295.666 207.593C296.741 206.519 298.353 206.519 299.427 207.486C300.502 208.453 300.502 210.172 299.535 211.246C299.535 211.246 299.535 211.246 299.427 211.354L293.41 217.371C292.98 217.908 292.335 218.231 291.583 218.231Z" fill="black"/>
<path d="M310.065 132.271H281.375C276.54 132.271 272.672 128.403 272.672 123.567V100.143C272.672 95.308 276.54 91.4398 281.375 91.4398H310.065C314.9 91.4398 318.768 95.308 318.768 100.143V123.46C318.768 128.403 314.9 132.271 310.065 132.271ZM281.268 96.8123C279.441 96.8123 277.937 98.3166 277.937 100.143V123.46C277.937 125.287 279.441 126.791 281.268 126.791H309.957C311.784 126.791 313.288 125.287 313.288 123.46V100.143C313.288 98.3166 311.784 96.8123 309.957 96.8123H281.268Z" fill="black"/>
<path d="M308.023 96.8123H307.915H307.701H283.739H283.417C281.913 96.9197 280.623 95.7378 280.623 94.2335V94.126V84.9928C280.623 76.7192 287.393 69.9498 295.666 69.9498C303.94 69.9498 310.709 76.7192 310.709 84.9928V94.126C310.709 95.6303 309.527 96.8123 308.023 96.8123ZM285.996 91.4398H305.337V84.9928C305.337 79.6203 301.039 75.3223 295.666 75.3223C290.294 75.3223 285.996 79.6203 285.996 84.9928V91.4398Z" fill="black"/>
<path d="M250 139.685C211.425 139.685 180.157 108.417 180.157 69.8424C180.157 31.2679 211.425 0 250 0C288.574 0 319.842 31.2679 319.842 69.8424C319.842 78.6533 318.231 87.3567 314.9 95.5229C314.362 96.9198 312.751 97.5645 311.461 97.0272C311.461 97.0272 311.461 97.0272 311.354 97.0272C310.924 96.8123 310.494 96.7049 310.064 96.8123H281.375C279.549 96.8123 278.044 98.3166 278.044 100.143V123.46C278.044 125.179 279.334 126.683 281.053 126.791C282.557 126.898 283.632 128.295 283.417 129.692C283.309 130.552 282.772 131.411 282.02 131.841C272.027 137.106 261.067 139.685 250 139.685ZM250 5.47994C214.434 5.47994 185.53 34.2765 185.53 69.9499C185.53 105.623 214.327 134.42 250 134.42C258.488 134.42 266.977 132.808 274.821 129.477C273.424 127.865 272.564 125.824 272.564 123.675V100.143C272.564 95.308 276.433 91.4398 281.268 91.4398H309.957C310.172 91.4398 310.387 91.4398 310.602 91.4398C322.529 57.9155 305.014 21.0602 271.49 9.13324C264.613 6.76934 257.306 5.47994 250 5.47994Z" fill="black"/>
<path d="M250 139.685C232.593 139.685 215.831 133.238 203.044 121.526C202.507 120.989 202.185 120.236 202.185 119.377L202.292 117.443C202.507 112.393 206.053 108.095 210.996 106.805L228.188 102.507L238.503 97.457C239.792 96.8123 241.404 97.3496 242.049 98.639V98.7464L246.347 108.417C246.669 108.417 246.884 108.417 247.099 108.417H253.116L257.844 98.7464C258.489 97.457 260.1 96.8123 261.39 97.457L271.705 102.507L275.788 103.582C276.97 103.904 277.83 104.979 277.83 106.16V123.567C277.83 125.287 279.119 126.791 280.838 126.898C282.342 127.006 283.417 128.403 283.309 129.799C283.202 130.659 282.665 131.519 281.913 131.948C272.135 137.106 261.175 139.685 250 139.685ZM207.557 118.41C226.039 134.635 252.149 138.825 274.821 129.37C273.424 127.758 272.564 125.716 272.564 123.567V108.309L270.201 107.772C269.986 107.772 269.878 107.665 269.663 107.557L261.605 103.582L257.951 111.103C257.092 112.715 255.48 113.789 253.546 113.789H246.024C244.09 113.789 242.371 112.715 241.619 110.888L238.288 103.474L230.229 107.45C230.014 107.557 229.907 107.557 229.692 107.665L212.178 112.07C209.491 112.715 207.665 115.079 207.45 117.765L207.557 118.41ZM246.024 108.309H246.239C246.132 108.309 246.132 108.309 246.024 108.309Z" fill="black"/>
<path d="M295.666 120.451C294.162 120.451 292.98 119.269 292.98 117.765V113.467C292.98 111.963 294.162 110.781 295.666 110.781C297.171 110.781 298.352 111.963 298.352 113.467V117.765C298.352 119.269 297.171 120.451 295.666 120.451Z" fill="black"/>
<path d="M295.666 116.153C291.261 116.153 287.608 112.5 287.608 108.095C287.608 103.689 291.261 100.036 295.666 100.036C300.072 100.036 303.725 103.689 303.725 108.095C303.725 112.5 300.072 116.153 295.666 116.153ZM295.666 105.408C294.162 105.408 292.98 106.59 292.98 108.095C292.98 109.599 294.162 110.781 295.666 110.781C297.171 110.781 298.353 109.599 298.353 108.095C298.353 106.59 297.171 105.408 295.666 105.408Z" fill="black"/>
</svg>
