<svg viewBox="0 0 69 47" preserveAspectRatio="xMidYMid meet" fill="none" xmlns="http://www.w3.org/2000/svg">
<path fill-rule="evenodd" clip-rule="evenodd" d="M35.7189 32.2285C35.5189 32.5113 35.2995 32.7721 35.0605 33.0111C34.6699 33.4017 34.2207 33.7142 33.7129 33.9486C33.2181 34.1829 32.6191 34.2936 31.916 34.2806C30.7702 34.2676 29.7871 33.9811 28.9668 33.4212C28.2624 32.9292 27.7067 32.3076 27.3 31.5564C27.2331 31.4328 27.1702 31.3057 27.1113 31.1751C27.0356 31.0018 26.9677 30.8252 26.9076 30.6455C26.6471 29.8666 26.5327 29.0275 26.5645 28.1283C26.5929 27.57 26.665 27.0466 26.7807 26.5581C26.9295 25.9301 27.1504 25.3597 27.4434 24.847C27.5085 24.7331 27.5762 24.6218 27.6466 24.5131C28.0703 23.8593 28.5897 23.3012 29.205 22.839C29.3053 22.7636 29.4082 22.6907 29.5137 22.6204L29.538 22.6039C30.3913 22.0264 31.3467 21.6022 32.4043 21.3314C33.485 21.0579 34.6048 20.9212 35.7637 20.9212L37.1256 20.9335L37.9316 20.9408L37.3652 24.3392L36.5847 24.3286L35.8223 24.3197C35.3275 24.3327 34.8848 24.4368 34.4941 24.6322C34.1165 24.8145 33.7845 25.0684 33.498 25.3939C33.2246 25.7064 33.0033 26.071 32.834 26.4876C32.6777 26.8913 32.5671 27.3275 32.502 27.7962C32.4629 28.1087 32.4499 28.4212 32.4629 28.7337C32.4759 29.0332 32.554 29.2871 32.6973 29.4954C32.8535 29.6908 33.1335 29.7949 33.5371 29.8079C33.9538 29.8079 34.3509 29.7168 34.7285 29.5345C35.1191 29.3392 35.4447 29.0853 35.7051 28.7728C35.7918 28.6688 35.8669 28.5582 35.9305 28.4412M35.72 32.2269C35.7704 32.7858 35.8753 33.3338 36.0371 33.8704L40.1964 33.8561L41.7012 33.8509L41.7207 33.4798C41.699 33.4088 41.6787 33.3375 41.6596 33.266C41.496 32.6533 41.4262 32.0203 41.4502 31.3669C41.4537 31.2709 41.4592 31.1744 41.4668 31.0775C41.5319 30.2311 41.623 29.4173 41.7402 28.6361L43.2246 19.3001C43.3114 18.4398 43.281 17.6513 43.1334 16.9345L40.1964 33.8561M36.9848 16.9208C36.8514 16.8468 36.6829 16.8021 36.4792 16.7866L36.4767 16.7865C36.6815 16.8018 36.8509 16.8465 36.9848 16.9208ZM35.1166 17.1897L35.1071 17.1987C34.9269 17.3853 34.7865 17.6158 34.6856 17.8896C34.7883 17.6112 34.932 17.3779 35.1166 17.1897ZM30.0684 19.1535L30.127 18.7728H28.6232C28.6111 18.9011 28.6019 19.0314 28.5957 19.1634L30.0684 19.1535ZM30.9451 14.313C30.8397 14.4032 30.7372 14.4962 30.6378 14.5921L30.9473 14.5931C30.9473 14.4992 30.9466 14.4058 30.9451 14.313ZM31.252 14.0658L30.9704 14.2915C31.0619 14.2141 31.1561 14.1389 31.252 14.0658ZM31.6634 13.7718C32.2254 13.3966 32.8352 13.0917 33.4929 12.8569L33.8496 12.7376C33.0544 12.9848 32.3256 13.3295 31.6634 13.7718Z" fill="#DFE8E6"/>
<path d="M37.4629 18.1087C37.4499 18.4733 37.4303 18.8314 37.4043 19.1829L37.1256 20.9335L37.9316 20.9408L37.3652 24.3392L36.5847 24.3286L35.9305 28.4412C36.058 28.2067 36.1391 27.9461 36.1738 27.6595L36.8574 30.0814C36.623 30.6283 36.3626 31.1556 36.0762 31.6634C35.9653 31.86 35.8466 32.0478 35.72 32.2269C35.7704 32.7858 35.8753 33.3338 36.0371 33.8704L40.1964 33.8561L43.1334 16.9345C43.0375 16.4688 42.8921 16.0334 42.6973 15.6283C42.2155 14.5866 41.4668 13.7793 40.4512 13.2064C39.4486 12.6335 38.2506 12.334 36.8574 12.3079C35.8158 12.2949 34.8131 12.4382 33.8496 12.7376L33.4929 12.8569C32.8352 13.0917 32.2254 13.3966 31.6634 13.7718C31.6173 13.8026 31.5715 13.8339 31.5261 13.8657L31.5075 13.8787C31.4212 13.9393 31.336 14.0017 31.252 14.0658L30.9704 14.2915L30.9676 14.2939L30.9451 14.313C30.9466 14.4058 30.9473 14.4992 30.9473 14.5931L30.6378 14.5921C30.1435 15.0686 29.7233 15.6159 29.377 16.2337L29.2149 16.5488C28.9175 17.1737 28.7255 17.8645 28.639 18.6212C28.6333 18.6715 28.628 18.722 28.6232 18.7728H30.127L30.0684 19.1535L34.3965 19.1243C34.4616 18.7337 34.5462 18.3561 34.6504 17.9915C34.6615 17.9569 34.6732 17.9229 34.6856 17.8896C34.7865 17.6158 34.9269 17.3853 35.1071 17.1987L35.1166 17.1897C35.1427 17.1631 35.1696 17.1374 35.1973 17.1126C35.4447 16.8783 35.8158 16.7676 36.3105 16.7806C36.3683 16.7806 36.4237 16.7826 36.4767 16.7865L36.4792 16.7866C36.6829 16.8021 36.8514 16.8468 36.9848 16.9208C37.0273 16.9443 37.0662 16.9709 37.1016 17.0003C37.1602 17.0492 37.209 17.1061 37.248 17.1712C37.4043 17.4316 37.4759 17.7441 37.4629 18.1087Z" fill="#DFE8E6"/>
<path d="M35.8809 28.7533C35.7637 29.5996 35.6986 30.459 35.6855 31.3314C35.6811 31.6313 35.692 31.9281 35.7183 32.2219L35.7194 32.2202L35.72 32.2269C35.8466 32.0478 35.9653 31.86 36.0762 31.6634C36.3626 31.1556 36.623 30.6283 36.8574 30.0814L36.1738 27.6595C36.1391 27.9461 36.058 28.2067 35.9305 28.4412L35.8809 28.7533Z" fill="#DFE8E6"/>
<path fill-rule="evenodd" clip-rule="evenodd" d="M30.127 18.7728L30.0684 19.1535L28.5957 19.1634C28.6019 19.0314 28.6111 18.9011 28.6232 18.7728H30.127ZM29.7367 21.3118L29.9146 20.1542L27.5476 20.1704L27.5964 19.1167C27.6018 19.0011 27.6093 18.8865 27.6189 18.7728H20.4785L19.6973 23.2845H23.3301L22.3535 28.2259C22.002 28.3952 21.6634 28.5579 21.3379 28.7142C21.0254 28.8704 20.6999 28.9941 20.3613 29.0853C20.0358 29.1764 19.6647 29.2155 19.248 29.2025C18.2715 29.1895 17.5488 28.9486 17.0801 28.4798C16.6113 27.998 16.3053 27.3861 16.1621 26.6439C16.0189 25.9017 15.9733 25.127 16.0254 24.3197C16.0905 23.4993 16.1621 22.7376 16.2402 22.0345L16.9629 17.2103C17.054 16.429 17.1973 15.6087 17.3926 14.7493C17.6009 13.89 17.9004 13.0957 18.291 12.3665C18.6816 11.6243 19.196 11.0319 19.834 10.5892C20.485 10.1465 21.2988 9.94466 22.2754 9.98372C23.1999 10.0228 23.8574 10.2637 24.248 10.7064C24.6517 11.1491 24.8991 11.7155 24.9902 12.4056C25.0944 13.0827 25.14 13.8053 25.127 14.5736L29.2878 14.5875C29.6851 14.0974 30.1378 13.658 30.6452 13.271C30.7236 13.2112 30.8028 13.1528 30.8829 13.0957C30.769 11.8176 30.504 10.663 30.0879 9.63216C29.528 8.19987 28.6296 7.08008 27.3926 6.27279C26.1556 5.45247 24.5345 5.0293 22.5293 5.00326C20.7194 4.96419 19.1309 5.27669 17.7637 5.94076C16.4095 6.5918 15.2637 7.49674 14.3262 8.6556C13.4017 9.80143 12.653 11.1165 12.0801 12.6009C11.5072 14.0853 11.11 15.6413 10.8887 17.2689L10.1465 22.015C9.95117 23.5645 9.95117 25.0684 10.1465 26.5267C10.3548 27.972 10.7845 29.2741 11.4355 30.4329C12.0866 31.5788 12.998 32.4967 14.1699 33.1868C15.3548 33.8639 16.8197 34.2155 18.5645 34.2415C19.7103 34.2546 20.8822 34.1374 22.0801 33.89C23.278 33.6426 24.4173 33.252 25.498 32.7181C25.8432 32.5455 26.1728 32.3567 26.4869 32.1517C26.3834 31.9697 26.2877 31.7812 26.1999 31.5864L26.195 31.5757C25.7259 30.5012 25.5214 29.3346 25.5651 28.0933V28.0854L25.5661 28.0776C25.6375 26.6787 25.9613 25.425 26.5749 24.3511C27.1696 23.3103 27.9634 22.4541 28.9499 21.7944L29.3161 21.5571C29.4542 21.4719 29.5944 21.3901 29.7367 21.3118ZM29.377 16.2337L29.2149 16.5488C29.2658 16.4418 29.3199 16.3368 29.377 16.2337ZM30.6378 14.5921L30.9473 14.5931C30.9473 14.4992 30.9466 14.4058 30.9451 14.313C30.8397 14.4032 30.7372 14.4962 30.6378 14.5921ZM31.252 14.0658L30.9704 14.2915C31.0619 14.2141 31.1561 14.1389 31.252 14.0658ZM31.6634 13.7718C32.2254 13.3966 32.8352 13.0917 33.4929 12.8569L33.8496 12.7376C33.0544 12.9848 32.3256 13.3295 31.6634 13.7718ZM43.1334 16.9345L40.1964 33.8561L41.7012 33.8509L41.7207 33.4798C41.699 33.4088 41.6787 33.3375 41.6596 33.266C41.496 32.6533 41.4262 32.0203 41.4502 31.3669L41.4668 31.0775C41.5319 30.2311 41.623 29.4173 41.7402 28.6361L43.2246 19.3001C43.3114 18.4398 43.281 17.6513 43.1334 16.9345ZM43.6052 15.2085C43.5645 15.1205 43.5221 15.0338 43.4781 14.9486L43.8652 12.7181H49.1973L49.1129 13.8993C49.3319 13.68 49.5619 13.475 49.8027 13.2845C50.6751 12.5944 51.7298 12.2689 52.9668 12.3079C54.347 12.334 55.4277 12.6725 56.209 13.3236C57.0033 13.9616 57.5697 14.7884 57.9082 15.804C58.2467 16.8066 58.4355 17.8939 58.4746 19.0658C58.5137 20.2376 58.4746 21.3574 58.3574 22.4251L58.1426 24.0658C58.0124 25.1986 57.7845 26.3704 57.459 27.5814C57.1335 28.7923 56.6647 29.9121 56.0527 30.9408C55.4538 31.9694 54.6725 32.7897 53.709 33.4017C52.7585 34.0137 51.5866 34.2936 50.1934 34.2415C49.0215 34.2025 48.0905 33.8314 47.4004 33.1283C46.9853 32.6972 46.6387 32.2025 46.3606 31.6441L44.5684 41.9759H38.7871L40.0228 34.8562L42.6501 34.8472L42.7194 33.5327L42.7282 33.3569L42.6774 33.188C42.4811 32.5443 42.4079 31.8694 42.4636 31.1558V31.1538C42.5267 30.3331 42.6155 29.5464 42.7282 28.7935L44.2126 19.4575L44.2165 19.4292L44.2194 19.4009C44.376 17.8495 44.1924 16.4368 43.6052 15.2085ZM48.7232 18.0246L47.0278 27.7977C47.0993 28.109 47.2104 28.3949 47.3613 28.6556C47.6478 29.1504 48.1947 29.4173 49.002 29.4564C49.7051 29.4824 50.265 29.3197 50.6816 28.9681C51.1113 28.6165 51.4368 28.1608 51.6582 27.6009C51.8926 27.028 52.0553 26.429 52.1465 25.804C52.2376 25.179 52.3092 24.6061 52.3613 24.0853L52.5371 22.3861C52.5762 21.9824 52.6283 21.4941 52.6934 20.9212C52.7715 20.3483 52.791 19.7754 52.752 19.2025C52.7259 18.6165 52.5762 18.1283 52.3027 17.7376C52.0423 17.347 51.5996 17.1387 50.9746 17.1126C50.3105 17.0866 49.7637 17.2168 49.334 17.5033C49.1067 17.6479 48.9031 17.8217 48.7232 18.0246ZM35.72 32.2269L35.7194 32.2202L35.7183 32.2219C35.5175 32.5062 35.3006 32.771 35.0605 33.0111C35.2995 32.7721 35.5189 32.5113 35.7189 32.2285C35.7693 32.7869 35.8754 33.3343 36.0371 33.8704C35.8753 33.3338 35.7704 32.7858 35.72 32.2269ZM27.3 31.5564C27.6617 31.2599 27.9986 30.9375 28.3105 30.5892L29.538 22.6039L29.5137 22.6204C29.4082 22.6907 29.3053 22.7636 29.205 22.839L29.1989 22.8433C28.5863 23.3046 28.0689 23.8613 27.6466 24.5131C27.5762 24.6218 27.5085 24.7331 27.4434 24.847C27.3783 24.9608 27.3164 25.0782 27.2585 25.1978C27.0557 25.6163 26.8964 26.0698 26.7807 26.5581C26.665 27.0466 26.5929 27.57 26.5645 28.1283C26.5327 29.0275 26.6471 29.8666 26.9076 30.6455C26.9677 30.8252 27.0356 31.0018 27.1113 31.1751C27.1702 31.3057 27.2331 31.4328 27.3 31.5564ZM36.9848 16.9208C36.8514 16.8468 36.6829 16.8021 36.4792 16.7866L36.4767 16.7865C36.6815 16.8018 36.8509 16.8465 36.9848 16.9208ZM35.1166 17.1897L35.1071 17.1987C34.9269 17.3853 34.7865 17.6158 34.6856 17.8896C34.7883 17.6112 34.932 17.3779 35.1166 17.1897Z" fill="#DFE8E6"/>
</svg>
